<svg width="26" height="45" viewBox="0 0 26 45" fill="none" xmlns="http://www.w3.org/2000/svg">
<path d="M24.8493 0.871383C24.5738 0.595167 24.2465 0.37602 23.8861 0.226493C23.5258 0.0769671 23.1395 0 22.7493 0C22.3592 0 21.9729 0.0769671 21.6126 0.226493C21.2522 0.37602 20.9249 0.595167 20.6494 0.871383L0.693918 20.8268C0.473949 21.0464 0.299433 21.3071 0.180361 21.5942C0.0612894 21.8812 0 22.1889 0 22.4997C0 22.8104 0.0612894 23.1182 0.180361 23.4052C0.299433 23.6923 0.473949 23.953 0.693918 24.1725L20.6494 44.128C21.8121 45.2907 23.6866 45.2907 24.8493 44.128C26.012 42.9653 26.012 41.0908 24.8493 39.9281L7.43274 22.5115L24.873 5.07128C26.012 3.9086 26.012 2.03407 24.8493 0.871383Z" fill="#A0A0A0"/>
</svg>
